<?xml version="1.0" standalone="no"?>
<!DOCTYPE svg PUBLIC "-//W3C//DTD SVG 20010904//EN"
 "http://www.w3.org/TR/2001/REC-SVG-20010904/DTD/svg10.dtd">
<svg version="1.0" xmlns="http://www.w3.org/2000/svg"
 width="836.000000pt" height="500.000000pt" viewBox="0 0 836.000000 500.000000"
 preserveAspectRatio="xMidYMid meet">

<g transform="translate(0.000000,500.000000) scale(0.100000,-0.100000)"
fill="#000000" stroke="none">
<path d="M3200 2323 c-49 -7 -146 -46 -186 -74 -89 -61 -159 -160 -191 -272
-18 -63 -27 -418 -13 -517 15 -98 76 -215 149 -282 100 -93 197 -128 356 -128
161 0 278 39 374 126 l51 46 0 193 0 193 -75 41 -74 41 -151 0 -150 0 0 -65 0
-65 140 0 c126 0 140 -2 142 -17 0 -10 2 -72 4 -138 2 -138 -1 -146 -91 -193
-46 -24 -60 -27 -165 -27 -101 0 -120 3 -158 23 -92 49 -158 143 -183 260 -7
33 -9 131 -7 255 4 181 6 208 27 260 55 139 154 211 291 212 100 0 157 -22
213 -85 43 -48 67 -103 67 -154 l0 -27 83 3 82 3 -3 49 c-9 129 -106 260 -227
305 -95 36 -213 49 -305 34z"/>
<path d="M5410 2324 c-157 -31 -269 -117 -335 -259 -51 -107 -58 -162 -53
-416 4 -199 7 -231 27 -284 57 -157 178 -271 322 -304 121 -28 283 -6 382 53
95 55 182 183 212 308 20 86 21 438 1 523 -42 178 -147 302 -300 356 -59 20
-202 33 -256 23z m234 -111 c106 -39 197 -158 225 -291 17 -81 14 -415 -4
-485 -36 -138 -114 -236 -220 -276 -67 -25 -192 -32 -258 -13 -125 35 -225
152 -256 300 -17 81 -14 425 4 495 40 152 133 254 262 287 55 14 190 5 247
-17z"/>
<path d="M6394 2315 c-80 -17 -136 -46 -194 -101 -124 -116 -124 -321 0 -427
54 -46 165 -99 290 -137 150 -46 258 -98 302 -148 71 -79 75 -173 11 -260 -83
-111 -319 -144 -475 -66 -96 48 -144 107 -157 193 l-6 46 -49 3 -49 3 7 -57
c16 -139 96 -230 252 -285 75 -26 245 -37 326 -20 118 25 224 97 271 184 31
60 31 193 -1 254 -50 97 -170 171 -372 233 -263 81 -340 144 -340 277 0 102
71 185 187 219 79 23 212 16 273 -15 90 -46 150 -123 165 -208 l7 -43 49 0 48
0 -5 43 c-10 82 -35 136 -86 193 -104 113 -274 158 -454 119z"/>
<path d="M1340 1690 l0 -630 90 0 90 0 0 630 0 630 -90 0 -90 0 0 -630z"/>
<path d="M313 1688 l2 -623 83 -3 82 -3 0 286 0 285 55 0 55 0 212 -257 c117
-142 224 -269 238 -283 23 -24 32 -26 123 -29 53 -1 97 2 97 6 0 4 -120 151
-266 326 -146 175 -263 324 -261 330 5 10 241 289 449 530 l50 57 -99 0 -98
-1 -230 -274 -229 -275 -48 0 -48 0 0 275 0 275 -85 0 -85 0 3 -622z"/>
<path d="M1713 1688 l2 -623 80 0 80 0 3 473 c1 259 6 472 10 472 4 0 16 -15
26 -32 11 -18 45 -73 76 -123 32 -49 155 -245 275 -435 119 -190 221 -348 226
-351 5 -3 44 -5 87 -5 l77 1 2 575 3 575 -83 47 -82 47 -5 -477 -5 -476 -100
160 c-56 87 -191 302 -300 476 l-200 318 -87 0 -88 0 3 -622z"/>
<path d="M3942 1688 l3 -623 45 0 45 0 3 288 2 287 355 0 355 0 2 -287 3 -288
50 0 50 0 0 620 0 620 -52 3 -53 3 0 -293 0 -293 -352 2 -353 2 -3 291 -2 290
-50 0 -50 0 2 -622z"/>
<path d="M6982 2268 l3 -43 195 -2 c107 -2 205 -3 218 -3 l22 0 0 -574 c0
-636 -6 -586 66 -586 l34 0 0 580 0 580 28 0 c15 0 104 1 197 1 94 0 177 2
186 5 11 3 16 17 17 44 l2 40 -486 0 -485 0 3 -42z"/>
</g>
</svg>
